<svg xmlns="http://www.w3.org/2000/svg" version="1.1" xmlns:xlink="http://www.w3.org/1999/xlink" xmlns:svgjs="http://svgjs.com/svgjs" width="100%" height="500"><svg version="1.1" id="SvgjsSvg1000" xmlns="http://www.w3.org/2000/svg" xmlns:xlink="http://www.w3.org/1999/xlink" x="0px" y="0px" width="100%" viewBox="0 0 500 500" enable-background="new 0 0 500 500" xml:space="preserve">
<path fill="#000000" opacity="1.000000" stroke="none" d="
M276.000000,501.000000 
	C185.333359,501.000000 95.166679,500.975098 5.000193,501.095795 
	C1.576114,501.100372 0.903036,500.423828 0.905301,497.000000 
	C1.013778,333.000092 1.013756,169.000122 0.905337,5.000246 
	C0.903074,1.576944 1.575796,0.903021 4.999877,0.905286 
	C168.999756,1.013775 332.999725,1.013761 496.999634,0.905353 
	C500.422668,0.903091 501.096985,1.575430 501.094727,4.999757 
	C500.986206,168.999634 500.986237,332.999603 501.094604,496.999512 
	C501.096893,500.422272 500.425629,501.102264 497.000275,501.096344 
	C423.500336,500.969482 350.000153,501.000000 276.000000,501.000000 
z"></path>
<path fill="#571D9C" opacity="1.000000" stroke="none" d="
M245.591644,195.331497 
	C245.945374,182.985504 245.975052,171.004456 245.998062,159.023407 
	C246.013199,151.147110 249.087646,148.758926 256.563568,151.527359 
	C272.750763,157.521729 288.817352,163.841156 304.958557,169.960922 
	C309.710938,171.762726 314.511353,173.457886 319.359680,174.979233 
	C322.484711,175.959824 324.011230,177.794373 324.009033,181.079849 
	C323.987640,213.031082 324.025055,244.982391 323.965637,276.933533 
	C323.957031,281.564026 320.395966,283.565704 315.629944,281.773407 
	C307.336578,278.654572 299.076660,275.446655 290.460632,272.168640 
	C286.031891,273.629547 282.934235,270.338776 278.878418,269.813202 
	C270.926819,268.094208 263.779633,265.318024 256.673523,261.320068 
	C255.836166,260.339233 255.469803,259.575531 255.402557,258.245422 
	C254.924973,254.654465 253.932617,251.482147 255.925873,248.085587 
	C257.998413,245.743973 260.127655,245.591705 262.502319,246.566635 
	C267.827179,248.752853 273.457703,250.197098 278.847107,253.227051 
	C283.051605,254.411377 286.191101,257.169312 290.571686,257.861084 
	C295.337250,258.268768 299.149414,260.479828 303.242737,261.797485 
	C308.819702,263.592773 310.453247,262.719635 310.477722,257.035889 
	C310.568756,235.911880 310.514557,214.787338 310.520752,193.663040 
	C310.522003,189.327072 308.763947,186.650589 304.622223,184.909561 
	C291.741791,179.495102 278.380524,175.384995 265.432953,170.158783 
	C261.393616,168.528336 259.697113,169.931351 259.524872,174.591904 
	C259.230194,182.565872 259.844757,190.556046 259.042023,198.915604 
	C257.838837,203.527374 258.853027,207.722137 259.039246,212.374542 
	C259.837555,222.039032 259.420868,231.276810 259.415161,240.506989 
	C259.414032,242.307526 259.435791,244.154190 258.132568,246.131958 
	C253.297714,250.369858 249.731796,246.452026 245.512573,244.728195 
	C244.795685,243.886780 244.579254,243.301392 244.462341,242.186523 
	C242.731293,230.502136 243.680481,219.238663 243.719971,207.508484 
	C243.957260,203.208862 242.548050,199.172592 245.591644,195.331497 
z"></path>
<path fill="#8C2DAB" opacity="1.000000" stroke="none" d="
M259.128052,307.371521 
	C257.209778,309.174164 258.065704,311.165314 258.051666,312.869934 
	C257.963959,323.524933 257.906647,334.182434 258.053467,344.836121 
	C258.114410,349.259827 256.476074,351.164581 251.893509,351.074524 
	C244.868210,350.936432 239.102127,347.133209 232.818008,344.939697 
	C218.482040,339.935608 204.352936,334.341217 190.095566,329.107117 
	C187.968643,328.326263 186.073730,327.123657 183.691895,326.684875 
	C180.605362,326.116211 178.910904,323.875031 178.925598,320.184204 
	C179.050369,288.883453 178.967300,257.581940 179.022354,226.280807 
	C179.032227,220.668564 182.457626,218.258377 187.380493,220.101578 
	C194.998810,222.953949 202.613663,225.815613 210.583069,228.784454 
	C211.932022,229.003326 212.646118,229.534576 213.292725,230.814087 
	C214.241165,234.250580 214.840363,237.247131 213.324936,240.666382 
	C212.986069,241.305634 212.814407,241.535736 212.293945,242.001556 
	C207.897552,244.034668 204.519089,241.494568 200.961136,240.433792 
	C194.671249,238.558517 193.515244,239.239700 193.499954,245.824646 
	C193.451965,266.479340 193.439590,287.134308 193.506912,307.788940 
	C193.527695,314.168121 194.409729,315.264038 200.534729,317.685760 
	C212.609253,322.459808 224.796173,326.938171 236.946960,331.511169 
	C242.711792,333.680756 244.292053,332.441620 244.539337,326.069885 
	C244.822479,318.774170 243.678040,311.424347 245.477753,303.799500 
	C245.729721,303.174377 245.850723,302.931152 246.250153,302.386658 
	C250.395401,300.243896 253.413818,302.544403 256.947479,304.324524 
	C258.443726,304.949310 259.083710,305.767761 259.128052,307.371521 
z"></path>
<path fill="#2B2B2B" opacity="1.000000" stroke="none" d="
M274.858765,373.030579 
	C284.548309,374.311432 287.846344,379.013641 285.232300,387.821930 
	C284.628845,389.855408 285.171906,390.707703 286.392517,392.039276 
	C292.800598,399.029877 290.251007,407.685211 280.972351,409.927673 
	C275.513794,411.246887 269.897400,411.933990 264.334290,412.790375 
	C261.709229,413.194458 260.389252,411.901886 260.035309,409.225037 
	C258.798126,399.868927 257.447601,390.527649 256.116760,381.184082 
	C255.558945,377.267792 256.453430,374.916443 261.152252,374.776123 
	C265.591400,374.643555 270.004700,373.647766 274.858765,373.030579 
z"></path>
<path fill="#2B2B2B" opacity="1.000000" stroke="none" d="
M348.270813,167.700211 
	C336.093933,152.975723 345.280029,137.873901 357.779114,134.633087 
	C365.762970,132.563019 372.475494,135.269348 377.487091,141.221313 
	C382.685486,147.395081 384.931641,154.718201 381.046204,162.564926 
	C377.549774,169.626083 372.006927,173.790024 363.746246,174.058060 
	C357.662659,174.255463 352.697113,172.233795 348.270813,167.700211 
z"></path>
<path fill="#2B2B2B" opacity="1.000000" stroke="none" d="
M242.526779,89.337662 
	C249.729385,95.354523 251.427597,102.914101 249.268005,111.213570 
	C247.146790,119.365509 240.873108,123.406532 232.960068,124.697174 
	C225.127640,125.974670 218.220108,123.521713 213.646790,116.964111 
	C209.322174,110.763130 208.509445,103.766495 211.724319,96.599129 
	C214.967438,89.368843 220.893494,86.402351 228.431793,86.019516 
	C233.302521,85.772171 238.129410,85.855980 242.526779,89.337662 
z"></path>
<path fill="#2B2B2B" opacity="1.000000" stroke="none" d="
M177.683914,136.219849 
	C173.786163,128.100998 170.172348,120.253937 166.254562,112.561684 
	C164.432327,108.983894 165.413803,107.028458 168.855789,105.589798 
	C173.139694,103.799255 177.269302,101.605797 181.626114,100.030441 
	C191.065887,96.617142 201.101456,104.978783 198.573532,114.684853 
	C197.260284,119.727089 198.641327,121.956917 202.576187,124.155602 
	C204.508240,125.235168 207.943481,126.377655 207.527451,128.346222 
	C207.007523,130.806412 203.356125,131.150116 201.035675,132.363983 
	C199.484634,133.175354 198.169968,132.448746 196.892502,131.547150 
	C194.993652,130.207001 192.986343,129.011475 191.154846,127.587624 
	C189.534775,126.328125 187.991669,125.723549 186.237747,127.174370 
	C184.423615,128.674988 185.714722,130.234955 186.310059,131.674606 
	C189.200714,138.664795 189.100327,138.371704 184.005051,140.642670 
	C179.289627,142.744324 179.311066,138.767746 177.683914,136.219849 
z"></path>
<path fill="#2B2B2B" opacity="1.000000" stroke="none" d="
M316.169678,141.066254 
	C300.928131,133.285339 302.278900,115.503906 313.594452,107.100639 
	C320.082336,102.282547 327.134003,103.032692 333.950989,106.125267 
	C341.233337,109.428947 344.065369,115.961746 344.646362,123.470116 
	C344.765625,125.011642 344.800446,128.412262 342.265625,128.099411 
	C339.082703,127.706581 335.651825,126.209068 335.106506,122.222221 
	C334.671936,119.045135 333.582703,116.545845 330.688080,114.868340 
	C326.119507,112.220734 321.139709,112.586617 317.810486,116.010620 
	C314.597076,119.315590 313.574310,125.526100 315.685303,128.915283 
	C318.304840,133.120941 323.541199,135.071640 328.339386,133.573441 
	C329.585541,133.184341 330.650146,131.974930 332.055145,132.378937 
	C334.645447,133.123795 337.870575,134.335190 338.561035,136.501480 
	C339.369385,139.037674 336.101593,140.499908 333.907471,141.448669 
	C328.138977,143.943024 322.283722,143.820801 316.169678,141.066254 
z"></path>
<path fill="#2B2B2B" opacity="1.000000" stroke="none" d="
M288.209351,100.927826 
	C283.159332,95.675560 278.129364,94.659134 273.902527,97.779884 
	C269.138245,101.297462 267.822449,107.310410 270.701294,112.408913 
	C273.321289,117.048988 279.834503,118.658485 284.624146,115.814293 
	C285.476288,115.308258 286.194824,114.579987 287.038239,114.055923 
	C290.275482,112.044403 294.230499,112.447136 296.281677,114.671677 
	C298.282959,116.842079 295.096863,119.348877 293.300751,121.100388 
	C285.798462,128.416382 272.018433,127.797585 264.445892,119.933609 
	C257.698578,112.926620 258.376343,99.018501 265.817688,91.782768 
	C272.751526,85.040535 285.640167,85.406021 293.059021,92.570442 
	C294.851990,94.301933 296.842010,95.960075 297.573029,98.435135 
	C298.239349,100.691216 300.480133,103.907814 297.758392,105.152077 
	C295.024200,106.402031 291.222443,105.936417 289.069183,102.579597 
	C288.802643,102.164062 288.641083,101.681168 288.209351,100.927826 
z"></path>
<path fill="#A334B2" opacity="1.000000" stroke="none" d="
M212.322266,231.217438 
	C211.737839,230.376083 211.470322,229.882690 211.069489,229.142426 
	C210.961807,216.782562 210.982300,204.669540 211.015152,192.556549 
	C211.033783,185.681107 214.401398,183.520950 220.967834,186.011612 
	C229.011948,189.062744 237.098145,192.002945 245.542328,194.978821 
	C245.959045,198.693054 245.999573,202.419540 245.991943,206.610199 
	C244.035477,209.639984 241.833298,208.983215 239.306961,207.990982 
	C235.236343,206.392227 231.289505,204.031067 226.377914,205.206818 
	C224.088425,211.752319 223.312988,218.195831 223.461227,224.798630 
	C223.523224,227.559616 223.907181,230.373215 222.752991,233.445038 
	C218.512512,236.096390 215.368225,234.748932 212.322266,231.217438 
z"></path>
<path fill="#A334B2" opacity="1.000000" stroke="none" d="
M259.354004,307.962860 
	C258.474731,307.295166 257.919098,306.818665 257.164856,306.153015 
	C254.468430,303.369629 254.481461,300.246704 255.284042,296.587646 
	C255.728943,295.630554 256.029510,295.122803 256.705933,294.375214 
	C260.518585,292.585022 263.407227,294.628937 266.448669,295.743835 
	C275.227356,298.961853 276.501129,298.090088 276.521851,288.821075 
	C276.533264,283.704773 276.430023,278.586670 276.591888,273.472961 
	C276.652771,271.549713 276.379425,269.422882 278.749420,267.982178 
	C282.926971,268.189758 286.451355,269.380035 289.879822,271.794800 
	C290.078735,284.660217 290.052948,297.259247 289.992889,309.858124 
	C289.964386,315.841034 286.505859,318.120941 281.037140,316.024658 
	C273.952606,313.308990 266.800629,310.769409 259.354004,307.962860 
z"></path>
<path fill="#2B2B2B" opacity="1.000000" stroke="none" d="
M120.370850,164.760864 
	C115.825722,160.231018 114.735596,155.058594 117.046730,150.122803 
	C120.223091,143.339188 126.528130,139.248917 132.762436,140.119370 
	C135.001343,140.431976 138.352661,140.877884 138.072769,143.427460 
	C137.783218,146.065216 136.104889,149.392258 132.256577,149.076080 
	C129.232681,148.827606 127.051659,149.882690 125.495865,152.309860 
	C124.708618,153.538055 123.866539,154.903854 125.121384,156.412796 
	C126.325615,157.860870 127.732872,157.713791 129.136032,156.890717 
	C131.424149,155.548584 133.635239,154.075638 135.914703,152.718140 
	C138.774124,151.015259 141.696457,149.161545 145.142166,149.388153 
	C151.546295,149.809265 155.846481,155.545914 154.886841,162.011841 
	C153.912537,168.576508 147.919998,175.115540 141.411743,176.622757 
	C140.293533,176.881714 139.074890,177.071045 137.959656,176.906342 
	C135.251190,176.506363 131.282028,176.397400 131.711441,172.920502 
	C132.038467,170.272568 134.469330,167.163589 138.452957,167.695389 
	C139.814713,167.877182 141.172272,168.007339 142.238220,167.027496 
	C144.136810,165.282272 147.159180,163.579803 145.260498,160.551056 
	C143.415817,157.608414 140.846176,159.643387 138.725372,160.841156 
	C136.272278,162.226562 133.944397,163.837662 131.468552,165.177872 
	C127.874809,167.123215 124.223892,167.455933 120.370850,164.760864 
z"></path>
<path fill="#2B2B2B" opacity="1.000000" stroke="none" d="
M308.666992,385.760620 
	C302.907990,386.226685 297.777435,386.072296 294.854523,380.510254 
	C291.211426,373.577759 294.729004,366.289551 303.574982,363.106079 
	C308.361816,361.383423 313.407471,360.778168 317.740631,364.411194 
	C319.210541,365.643616 322.106964,367.251526 319.925354,369.528168 
	C318.169617,371.360413 315.516541,373.733093 312.497375,371.757233 
	C309.996948,370.120819 307.798004,369.394287 305.223114,371.262207 
	C303.870178,372.243744 302.260040,373.182312 302.924316,375.197632 
	C303.591797,377.222626 305.307617,377.893555 307.304932,377.631958 
	C310.093811,377.266663 312.863281,376.754791 315.643250,376.319702 
	C320.666931,375.533417 325.706726,377.879700 327.926361,382.026672 
	C330.164825,386.208832 329.154724,391.299194 325.317444,395.173981 
	C320.022949,400.520111 311.096649,402.664856 305.689423,399.567413 
	C303.328522,398.214996 300.551636,396.541504 301.083862,393.167664 
	C301.408203,391.111389 307.337280,389.842438 309.874054,391.369995 
	C312.772644,393.115356 315.242157,392.559845 317.667450,390.718048 
	C318.720917,389.918091 319.777954,388.909729 319.417480,387.389832 
	C319.010620,385.674438 317.662323,385.106171 316.019897,385.053009 
	C313.688049,384.977600 311.362732,384.947571 308.666992,385.760620 
z"></path>
<path fill="#2B2B2B" opacity="1.000000" stroke="none" d="
M221.379883,383.402863 
	C222.979202,380.840973 224.603195,378.692902 225.736450,376.311340 
	C227.262161,373.105072 229.734512,372.705139 232.768860,373.201202 
	C235.797272,373.696320 237.259949,375.545807 237.884277,378.471222 
	C239.925629,388.036346 242.134659,397.565765 244.161743,407.133789 
	C244.583359,409.123840 246.639847,412.075897 243.130005,412.853760 
	C240.146652,413.514954 236.713608,413.247101 235.185272,409.472076 
	C232.779724,403.530426 222.589096,401.942841 218.517044,406.859863 
	C216.575577,409.204193 211.184586,409.533722 209.089218,407.450684 
	C207.751709,406.121063 208.779160,405.051727 209.432678,403.928192 
	C213.351837,397.190521 217.268494,390.451385 221.379883,383.402863 
z"></path>
<path fill="#2B2B2B" opacity="1.000000" stroke="none" d="
M196.432541,402.427856 
	C188.784500,401.331116 182.734711,396.963043 175.973282,394.332825 
	C173.952560,393.546753 174.107407,391.810120 174.870529,390.124512 
	C179.182297,380.600433 183.516800,371.086578 187.820175,361.558685 
	C189.146729,358.621582 191.088211,359.648010 193.189880,360.514130 
	C195.526276,361.476929 197.629089,362.435760 196.251053,365.544556 
	C193.561356,371.612457 191.152649,377.835297 188.014923,383.664185 
	C185.723404,387.921112 186.795700,390.044434 190.948364,391.486115 
	C192.042282,391.865906 193.061859,392.454407 194.139999,392.886047 
	C200.892990,395.589600 201.102737,396.326050 196.432541,402.427856 
z"></path>
<path fill="#292929" opacity="1.000000" stroke="none" d="
M375.201813,260.981384 
	C388.074402,260.105225 391.027618,251.273972 392.267517,240.709167 
	C394.888702,245.960571 394.204315,252.185562 398.379883,256.538574 
	C402.721191,261.064331 409.170654,259.949005 414.848053,263.022217 
	C400.407257,263.130707 393.210785,270.364166 392.468781,284.890564 
	C391.919220,270.172882 384.460236,263.189240 369.782898,263.528534 
	C371.819885,261.214447 373.333069,261.150330 375.201813,260.981384 
z"></path>
<path fill="#292929" opacity="1.000000" stroke="none" d="
M95.228607,260.384033 
	C106.647789,258.381012 107.171974,248.994324 109.565758,240.366196 
	C110.194893,254.607208 117.607262,261.660126 132.060028,262.622498 
	C117.608498,263.309723 109.816269,269.883087 109.736740,284.498688 
	C107.092941,279.005310 107.973175,272.606415 103.627480,268.348083 
	C99.321915,264.129028 93.169769,264.701202 87.338074,262.897278 
	C89.712143,260.428467 92.593559,261.405029 95.228607,260.384033 
z"></path>
<path fill="#2B2B2B" opacity="1.000000" stroke="none" d="
M166.753098,140.235977 
	C167.899170,141.679016 168.654022,143.021927 169.732086,144.013412 
	C172.386398,146.454575 173.027740,148.310654 169.655746,151.023499 
	C166.322144,153.705460 164.456406,152.587601 162.324661,149.860458 
	C156.621231,142.564041 150.862427,135.310806 145.108917,128.053665 
	C143.271317,125.735832 142.367111,123.786301 145.377930,121.379593 
	C148.497833,118.885696 150.600220,119.489899 152.796478,122.348015 
	C157.332367,128.250824 161.934204,134.102966 166.753098,140.235977 
z"></path>
<path fill="#000000" opacity="1.000000" stroke="none" d="
M257.179474,199.405579 
	C257.050201,187.689545 257.050201,176.376160 257.050201,164.751312 
	C264.748047,166.261047 271.453705,169.768570 278.504425,172.223236 
	C288.271393,175.623535 297.845276,179.581909 307.630646,182.924271 
	C311.442871,184.226410 313.158539,185.819305 313.115173,190.210114 
	C312.876556,214.355438 313.001282,238.504349 313.001312,262.652039 
	C313.001312,264.135406 313.001312,265.618744 313.001312,267.479309 
	C304.918396,266.122681 298.130310,262.189514 290.399170,259.950867 
	C287.486389,258.090912 287.579956,255.353043 287.557068,252.695770 
	C287.471069,242.713013 287.569550,232.729614 287.506470,222.746826 
	C287.456116,214.778687 285.822784,212.495148 278.249023,210.070786 
	C272.696259,208.293320 267.438568,205.772430 261.953430,203.828476 
	C259.939545,203.114731 257.788116,202.377808 257.179474,199.405579 
z"></path>
<path fill="#A334B2" opacity="1.000000" stroke="none" d="
M256.927826,199.391052 
	C266.284821,202.654266 275.478485,206.414581 284.773193,209.905899 
	C288.763916,211.404922 290.188751,213.769974 290.101074,218.098114 
	C289.825104,231.724167 289.998749,245.359329 290.009125,259.450256 
	C286.104889,259.261200 282.335876,258.246857 279.052673,255.290039 
	C276.735474,253.185425 276.580872,250.709763 276.552979,248.181946 
	C276.485168,242.036880 276.579102,235.891220 276.503387,229.746658 
	C276.420837,223.049088 275.344269,221.539032 269.038055,218.990311 
	C266.727356,218.056427 264.360046,217.272964 262.005554,216.463501 
	C259.999451,215.773819 258.567413,214.526199 257.349487,212.351273 
	C255.732864,207.976425 255.828598,203.887817 256.927826,199.391052 
z"></path>
<path fill="#000000" opacity="1.000000" stroke="none" d="
M222.853394,199.418274 
	C228.781067,201.224884 234.431564,203.392471 240.078964,205.568115 
	C241.730759,206.204468 243.265778,207.243271 245.553421,207.043198 
	C245.957275,218.387756 245.970795,229.701157 245.963165,241.479279 
	C244.285446,243.790604 242.396835,243.112198 240.455002,242.523438 
	C235.701248,241.082077 231.126480,239.159637 226.475113,237.442627 
	C223.698456,236.417648 222.355942,234.748840 222.428635,231.523590 
	C222.667068,220.946899 222.400299,210.362915 222.853394,199.418274 
z"></path>
<path fill="#000000" opacity="1.000000" stroke="none" d="
M257.053223,212.499039 
	C263.967712,214.373398 270.845795,216.730270 277.737396,219.046799 
	C279.874390,219.765137 278.937775,221.530029 278.947723,222.793747 
	C279.029846,233.209290 278.985168,243.625839 278.933105,254.511002 
	C271.516144,253.239227 264.617950,250.198746 257.386658,247.107925 
	C257.068481,235.623672 257.045227,224.294846 257.053223,212.499039 
z"></path>
<path fill="#000000" opacity="1.000000" stroke="none" d="
M278.855927,267.573853 
	C279.106201,279.435089 279.106201,291.022430 279.106201,303.178223 
	C271.907471,300.384460 265.295746,297.818451 258.353333,295.090912 
	C256.276703,294.112183 255.858932,292.501526 255.781967,290.833374 
	C255.363846,281.771423 255.319809,272.706543 255.815704,263.645081 
	C255.879883,262.472290 256.255981,261.379791 257.635468,260.324890 
	C264.908569,262.539795 271.539490,265.539001 278.855927,267.573853 
z"></path>
<path fill="#8D2EAD" opacity="1.000000" stroke="none" d="
M257.946075,259.878906 
	C258.058472,271.391846 258.031372,282.696594 258.013489,294.465363 
	C257.846039,295.197845 257.645447,295.447052 257.248718,295.844513 
	C252.956604,298.424255 249.961853,295.154480 246.256836,293.602692 
	C245.646271,292.741821 245.479340,292.167419 245.414230,291.093109 
	C243.950577,279.402191 244.275940,268.154755 245.221405,256.469666 
	C245.519958,255.757690 245.650208,255.478943 246.062012,254.837875 
	C250.606140,252.746017 253.823120,254.366852 256.735535,258.042908 
	C257.235718,258.846344 257.521149,259.258545 257.946075,259.878906 
z"></path>
<path fill="#8E2BAE" opacity="1.000000" stroke="none" d="
M222.912781,199.401947 
	C223.093643,209.543884 223.137436,220.034927 222.960159,230.522232 
	C222.915558,233.160980 223.945038,234.225739 226.324677,235.033768 
	C232.670746,237.188599 238.918213,239.633804 245.573456,241.953796 
	C246.008911,242.426132 246.075790,242.908264 246.209137,243.749542 
	C248.592575,247.286377 249.793457,250.626221 247.396301,254.709320 
	C247.016861,254.984924 246.998352,255.003143 246.989639,255.012772 
	C245.337830,256.976318 243.442947,256.370850 241.572510,255.500229 
	C238.404465,254.025665 235.023209,253.168381 231.735474,252.044785 
	C226.718674,250.330292 225.597015,251.131912 225.504395,256.601624 
	C225.392242,263.224976 225.599594,269.852936 225.394562,276.474182 
	C225.326080,278.685883 225.767853,281.282379 222.486053,282.377869 
	C219.601166,281.207001 219.691422,278.880890 219.661392,276.802948 
	C219.509018,266.263153 219.224365,255.720016 219.865997,244.694427 
	C220.414459,240.754425 218.384445,236.973358 221.616028,233.497604 
	C221.989761,223.803253 221.993088,214.439758 222.014099,205.076324 
	C222.018143,203.276657 221.878738,201.449768 222.912781,199.401947 
z"></path>
<path fill="#3E1696" opacity="1.000000" stroke="none" d="
M247.365860,255.090668 
	C246.391586,251.673096 245.897964,248.350586 246.239609,244.535965 
	C249.947266,243.849075 253.012970,245.852692 256.725464,246.880554 
	C257.091705,246.952515 257.022552,246.969116 257.037598,246.936707 
	C257.025299,250.412247 256.997986,253.920227 256.960449,257.931183 
	C253.871811,257.354919 250.793335,256.275665 247.365860,255.090668 
z"></path>
<path fill="#000000" opacity="1.000000" stroke="none" d="
M246.784546,302.671936 
	C246.958740,313.537384 246.832382,324.014465 247.077866,334.482880 
	C247.154373,337.745605 245.578369,337.571014 243.642548,336.839661 
	C229.281662,331.414459 215.248016,324.830780 200.514053,320.789490 
	C190.938248,318.162994 190.491272,313.079010 190.615540,305.238861 
	C190.986862,281.813721 190.748947,258.378937 190.748947,234.412643 
	C197.753571,235.827393 203.765259,239.002121 210.532578,241.022446 
	C213.460495,242.829636 213.422256,245.545807 213.443787,248.210236 
	C213.526871,258.492645 213.434113,268.775574 213.491776,279.058044 
	C213.535736,286.896118 214.778214,288.745331 222.214447,291.603943 
	C228.556244,294.041840 235.034744,296.116577 241.297684,298.771881 
	C243.302872,299.622040 245.171265,300.623199 246.784546,302.671936 
z"></path>
<path fill="#A334B2" opacity="1.000000" stroke="none" d="
M246.938019,303.023590 
	C235.689575,299.751343 224.882645,295.223389 213.977402,290.966827 
	C211.163254,289.868408 210.961716,287.493561 210.975647,284.837006 
	C211.050476,270.547455 211.004837,256.257324 210.959076,241.503510 
	C211.099304,241.033737 211.281250,241.027817 211.735840,241.006866 
	C216.073929,238.286713 218.803299,240.662079 221.710419,243.775940 
	C222.320694,256.475983 221.367096,268.884888 222.685852,281.644165 
	C225.019028,280.984344 227.123962,280.780914 229.441849,281.859894 
	C233.481674,283.740387 237.905640,284.656769 241.917206,286.659302 
	C243.712387,287.555481 245.444427,288.453064 246.693085,290.610565 
	C246.983566,291.383575 247.005127,291.864777 247.047607,292.706665 
	C249.845154,295.936768 249.958191,298.999451 247.370087,302.590149 
	C247.006775,302.948578 246.934387,302.983551 246.938019,303.023590 
z"></path>
<path fill="#7326A4" opacity="1.000000" stroke="none" d="
M221.996429,243.619843 
	C218.678513,243.845596 215.822281,242.114456 212.362381,241.087067 
	C212.006271,237.929855 212.004044,234.867874 212.003586,231.337708 
	C215.066010,231.610535 218.126663,232.351578 221.583801,233.129669 
	C221.984116,236.496017 221.987946,239.825317 221.996429,243.619843 
z"></path>
<path fill="#7326A4" opacity="1.000000" stroke="none" d="
M247.368958,303.036560 
	C247.022308,299.951874 247.037827,296.955200 247.060928,293.512939 
	C250.474060,292.909760 253.447647,294.287354 256.744476,295.854309 
	C257.051086,299.029449 257.025574,302.046814 256.983154,305.514038 
	C253.887863,305.017395 250.809494,304.070953 247.368958,303.036560 
z"></path>
<path fill="#000000" opacity="1.000000" stroke="none" d="
M268.123657,399.788879 
	C268.006042,396.698425 269.653473,395.905426 271.926727,396.054688 
	C274.458649,396.221008 277.359924,395.022797 279.324341,397.582916 
	C280.176392,398.693390 280.223450,400.252075 279.247620,401.281891 
	C277.321167,403.314880 274.677612,403.795410 271.998291,403.884644 
	C269.524017,403.967041 268.520935,402.376434 268.123657,399.788879 
z"></path>
<path fill="#000000" opacity="1.000000" stroke="none" d="
M273.683472,387.879791 
	C270.486755,388.802185 267.318512,390.445953 266.192383,385.896515 
	C265.647064,383.693420 266.590607,381.799713 268.933960,381.380890 
	C271.457581,380.929840 274.488037,379.952576 276.263855,382.584167 
	C277.804260,384.866852 276.100464,386.573334 273.683472,387.879791 
z"></path>
<path fill="#000000" opacity="1.000000" stroke="none" d="
M365.850159,143.971893 
	C371.666595,147.226685 374.145233,151.212219 373.258850,155.466660 
	C372.278351,160.172745 368.236694,164.290787 364.031219,164.898148 
	C359.299835,165.581451 355.910370,163.325302 353.505219,159.636154 
	C350.951263,155.718704 351.391571,151.470276 354.191101,147.972733 
	C356.965118,144.507111 360.616150,142.148346 365.850159,143.971893 
z"></path>
<path fill="#000000" opacity="1.000000" stroke="none" d="
M221.014130,99.177719 
	C226.154099,94.231697 230.909302,93.286240 235.421127,96.009705 
	C239.462234,98.449020 241.437790,103.472305 240.129608,107.981941 
	C238.396652,113.955833 232.885025,117.128815 227.064316,115.503479 
	C221.247299,113.879173 218.082184,107.828369 219.924515,101.810814 
	C220.164948,101.025482 220.533875,100.279480 221.014130,99.177719 
z"></path>
<path fill="#000000" opacity="1.000000" stroke="none" d="
M179.021011,117.019600 
	C178.327713,114.796234 175.664368,112.990173 177.728104,110.983231 
	C179.735550,109.031021 182.603043,108.070114 185.472473,108.293800 
	C188.500900,108.529869 190.273529,112.350060 188.872711,115.078400 
	C186.817215,119.081841 181.875473,120.232849 179.021011,117.019600 
z"></path>
<path fill="#000000" opacity="1.000000" stroke="none" d="
M229.559845,397.011536 
	C225.142120,396.891174 224.595276,394.914124 226.757568,391.942413 
	C227.878555,390.401855 228.203949,388.233734 230.236710,387.210510 
	C232.045364,389.659546 231.908096,392.575195 232.508286,395.240479 
	C233.002502,397.435059 231.150696,396.956238 229.559845,397.011536 
z"></path>
<path fill="#000000" opacity="1.000000" stroke="none" d="
M246.977783,290.439880 
	C241.377167,288.884003 235.802170,286.837708 230.202682,284.860840 
	C227.915588,284.053375 225.575470,283.396149 223.052368,282.347504 
	C222.845261,270.232788 222.845261,258.441162 222.845261,246.167526 
	C231.170135,248.787888 238.854279,251.454544 246.617889,254.966003 
	C246.985138,266.674072 246.989349,278.325714 246.977783,290.439880 
z"></path>
</svg><style>@media (prefers-color-scheme: light) { :root { filter: none; } }
</style></svg>